PathFileType	4	(X/Y/Z)	/Users/itak/Documents/Research/Walk-IL/dataset/trc/00558_00009.trc
DataRate	CameraRate	NumFrames	NumMarkers	Units	OrigDataRate	OrigDataStartFrame	OrigNumFrames
100.000000	100.000000	4	54	mm	100.000000	171	456
Frame#	Time	RPSI			LPSI			L3			STRN			T10			C7			CLAV			RBAK			LBAK			LSHO			LUPA			LAEL			LAOL			LWTS			LWPS			LFRA			LIFD			LHPS			LHTS			RSHO			RUPA			RAEL			RAOL			RWTS			RWPS			RFRA			RHTS			RHPS			RBHD			LFHD			RFHD			LBHD			LHIP			RHIP			RASI			LASI			LKNE			LTHI			LANK			LTIP			LTOE			LMT1			LMT5			LHEE			RKNE			RTHI			RANK			RTIP			RTOE			RMT1			RMT5			RHEE			RIFD			*53			
		X1	Y1	Z1	X2	Y2	Z2	X3	Y3	Z3	X4	Y4	Z4	X5	Y5	Z5	X6	Y6	Z6	X7	Y7	Z7	X8	Y8	Z8	X9	Y9	Z9	X10	Y10	Z10	X11	Y11	Z11	X12	Y12	Z12	X13	Y13	Z13	X14	Y14	Z14	X15	Y15	Z15	X16	Y16	Z16	X17	Y17	Z17	X18	Y18	Z18	X19	Y19	Z19	X20	Y20	Z20	X21	Y21	Z21	X22	Y22	Z22	X23	Y23	Z23	X24	Y24	Z24	X25	Y25	Z25	X26	Y26	Z26	X27	Y27	Z27	X28	Y28	Z28	X29	Y29	Z29	X30	Y30	Z30	X31	Y31	Z31	X32	Y32	Z32	X33	Y33	Z33	X34	Y34	Z34	X35	Y35	Z35	X36	Y36	Z36	X37	Y37	Z37	X38	Y38	Z38	X39	Y39	Z39	X40	Y40	Z40	X41	Y41	Z41	X42	Y42	Z42	X43	Y43	Z43	X44	Y44	Z44	X45	Y45	Z45	X46	Y46	Z46	X47	Y47	Z47	X48	Y48	Z48	X49	Y49	Z49	X50	Y50	Z50	X51	Y51	Z51	X52	Y52	Z52	X53	Y53	Z53	X54	Y54	Z54	

172	1.71	-872.3040161132812	972.4802856445312	-80.53961944580078	-825.1072387695312	965.7426147460938	-205.7121276855469	-803.1653442382812	1072.164428710938	-132.6535339355469	-511.8890686035156	1156.058715820312	-65.66695404052734	-760.0850830078125	1190.048217773438	-113.9533233642578	-613.1336669921875	1420.267700195312	-49.0426139831543	-486.864013671875	1263.469116210938	-53.91035079956055	-738.4550170898438	1326.188110351562	11.37563419342041	-645.37109375	1393.068603515625	-150.0145721435547	-529.650146484375	1390.0986328125	-212.624755859375	-579.2135009765625	1301.424560546875	-320.5187377929688	-659.0730590820312	1123.865234375	-399.5705261230469	-755.1046752929688	1136.1708984375	-366.8613891601562	-589.7203369140625	888.2785034179688	-336.1050415039062	-618.0919189453125	860.906005859375	-413.7129211425781	-642.830810546875	1039.056884765625	-407.8374633789062	-579.82470703125	727.3782348632812	-326.5940551757812	-604.697509765625	802.391845703125	-403.4314880371094	-561.7785034179688	815.224609375	-351.1850280761719	-594.2356567382812	1350.03466796875	102.1639709472656	-638.1234130859375	1293.558471679688	161.7789459228516	-714.5611572265625	1024.427856445312	213.0143890380859	-770.853515625	1006.460266113281	188.3909606933594	-543.9796142578125	852.7578125	143.4149627685547	-579.5848999023438	812.3887329101562	205.6703186035156	-696.5486450195312	970.1519775390625	213.8632659912109	-476.9481201171875	793.1195678710938	163.5388488769531	-527.1746215820312	758.0418090820312	206.4382629394531	-501.8448486328125	1552.102905273438	47.90287780761719	-319.8495788574219	1525.71484375	-48.77256393432617	-370.2818908691406	1521.452392578125	86.40703582763672	-438.5043029785156	1552.600219726562	-104.8808441162109	-666.1970825195312	876.6958618164062	-284.4736938476562	-815.3060913085938	880.3276977539062	71.10651397705078	-708.4705810546875	892.2288208007812	50.31119155883789	-615.1015014648438	885.524658203125	-207.2160491943359	-413.3405151367188	529.9356689453125	-162.7636260986328	-512.0575561523438	665.0181884765625	-224.44677734375	-610.2400512695312	81.74890899658203	-200.899169921875	-526.4314575195312	297.0299377441406	-192.0315704345703	-418.2980041503906	77.64263916015625	-112.4974212646484	-492.9471435546875	77.94511413574219	-88.70456695556641	-489.9248352050781	70.01273345947266	-193.2679748535156	-687.8206787109375	91.80393218994141	-161.4384613037109	-787.88916015625	429.5072326660156	12.57621479034424	-788.4837646484375	720.8025512695312	75.03037261962891	-1054.248413085938	48.74420547485352	-134.6998596191406	-835.1323852539062	291.854736328125	-29.52422523498535	-835.4171752929688	36.67210388183594	-92.75354766845703	-877.717041015625	41.72029113769531	-153.0992584228516	-939.6129760742188	35.44295883178711	-67.76421356201172	-1085.701538085938	52.44974899291992	-206.8259582519531	-459.5166320800781	714.138427734375	141.8954315185547	nan	nan	nan	
173	1.72	-852.3385009765625	976.9096069335938	-72.48184204101562	-805.6826782226562	970.0156860351562	-197.6578369140625	-784.4005126953125	1076.4501953125	-124.6143035888672	-493.8344116210938	1163.730102539062	-61.09097671508789	-742.7774047851562	1194.713012695312	-106.7335357666016	-597.8739624023438	1426.509765625	-44.36098861694336	-470.0516662597656	1271.380249023438	-49.9033317565918	-721.7575073242188	1331.634399414062	17.69820022583008	-630.8370971679688	1398.533569335938	-144.7501831054688	-515.8602294921875	1396.954956054688	-208.4248352050781	-565.3468627929688	1308.311889648438	-316.1183471679688	-644.0081787109375	1130.122436523438	-394.8616943359375	-739.6356811523438	1140.859008789062	-360.904052734375	-569.2623291015625	895.7254028320312	-332.6385498046875	-598.60986328125	867.7144775390625	-409.7101135253906	-626.374755859375	1045.635375976562	-403.4714965820312	-557.37939453125	734.2379760742188	-323.8659362792969	-584.1941528320312	809.4244384765625	-399.5301818847656	-540.5743408203125	822.9075317382812	-348.0693359375	-576.9888916015625	1357.233032226562	106.6836090087891	-619.899169921875	1300.764038085938	166.9777374267578	-694.8683471679688	1031.584350585938	219.0318145751953	-751.6976318359375	1013.377380371094	195.2372741699219	-524.0458984375	861.418212890625	147.4403839111328	-558.7577514648438	820.4846801757812	209.8089141845703	-676.5840454101562	977.5786743164062	219.6273803710938	-456.2908935546875	802.3301391601562	166.8148956298828	-505.7657775878906	766.479736328125	209.80517578125	-486.2959594726562	1559.55859375	51.3077278137207	-304.3672485351562	1533.422119140625	-45.51385879516602	-354.6949462890625	1529.102783203125	89.74596405029297	-423.1080932617188	1560.133666992188	-101.5214767456055	-646.9354858398438	882.3229370117188	-276.8644104003906	-795.1395263671875	884.6368408203125	78.79246520996094	-688.3596801757812	896.6382446289062	57.44004058837891	-595.422119140625	890.887451171875	-200.0369110107422	-394.6124267578125	535.0009155273438	-157.2294921875	-493.1421508789062	670.4638061523438	-218.4344329833984	-561.86767578125	69.64747619628906	-178.541015625	-493.0443115234375	292.572998046875	-178.8976287841797	-369.7605285644531	80.85830688476562	-90.21097564697266	-444.4424743652344	78.29289245605469	-66.63245391845703	-440.8244323730469	64.44510650634766	-170.2853240966797	-640.1895751953125	77.83577728271484	-139.6943817138672	-780.2884521484375	433.8604125976562	13.85189819335938	-771.2156982421875	724.40771484375	80.28861999511719	-1053.392211914062	55.1163215637207	-130.9563903808594	-830.2955932617188	297.012451171875	-27.68214797973633	-835.9832763671875	36.64021301269531	-93.37351226806641	-877.6629028320312	43.02520370483398	-152.5016479492188	-939.1947631835938	35.41802978515625	-67.07174682617188	-1085.287963867188	62.6059684753418	-202.466064453125	-438.012451171875	723.7667236328125	144.5102081298828	nan	nan	nan	
174	1.73	-832.0152587890625	981.3234252929688	-64.70507049560547	-785.7844848632812	974.2152099609375	-189.8213500976562	-765.2953491210938	1080.67919921875	-116.7083358764648	-475.6612243652344	1171.425659179688	-56.26030349731445	-725.3287353515625	1199.36328125	-99.63099670410156	-582.5752563476562	1432.714965820312	-39.74089813232422	-453.1766357421875	1279.315673828125	-45.71549224853516	-705.0405883789062	1337.083862304688	23.87625885009766	-616.1561279296875	1403.90087890625	-139.5636901855469	-501.8905944824219	1403.64453125	-204.1454772949219	-551.0704345703125	1314.857788085938	-311.6011657714844	-628.1507568359375	1135.873168945312	-389.9613952636719	-723.4124145507812	1144.90673828125	-354.9278869628906	-547.7531127929688	902.9900512695312	-328.6424865722656	-577.8173828125	874.1698608398438	-405.1898803710938	-608.9842529296875	1051.760131835938	-398.8131408691406	-533.598388671875	741.0062866210938	-320.4437255859375	-562.2021484375	816.194091796875	-395.0731811523438	-518.1004638671875	830.4680786132812	-344.3283996582031	-559.8928833007812	1364.472534179688	111.1712112426758	-601.9141235351562	1308.06787109375	172.1164398193359	-675.6762084960938	1038.813110351562	224.8121795654297	-733.0252075195312	1020.499816894531	201.7785034179688	-504.92578125	869.7154541015625	151.4499359130859	-538.8605346679688	828.328125	213.9367523193359	-657.2447509765625	985.0543212890625	225.1900329589844	-436.6687622070312	810.9234008789062	170.0782928466797	-485.5230407714844	774.5173950195312	213.2044372558594	-470.7840270996094	1566.984008789062	54.74516296386719	-288.932861328125	1541.069702148438	-42.21187973022461	-339.1463317871094	1536.706665039062	93.11162567138672	-407.7491149902344	1567.6259765625	-98.12791442871094	-627.2701416015625	887.5106811523438	-269.2295227050781	-774.5790405273438	889.1256713867188	86.34951782226562	-667.9158935546875	901.2899780273438	64.47609710693359	-575.3596801757812	895.9187622070312	-192.8825988769531	-377.0001831054688	538.1754150390625	-151.6934814453125	-474.7707214355469	674.4158935546875	-212.5602264404297	-516.5307006835938	59.01451873779297	-156.9287414550781	-461.662353515625	288.1018981933594	-166.1231994628906	-325.5788879394531	83.60480499267578	-67.99250030517578	-400.3091430664062	79.05025482177734	-44.9537467956543	-395.2557678222656	59.01008224487305	-147.3636016845703	-595.5936279296875	66.16933441162109	-119.1008453369141	-770.4085693359375	438.6582946777344	16.06945037841797	-753.073486328125	728.3644409179688	85.77297210693359	-1051.736572265625	63.08037185668945	-126.3627090454102	-823.4913940429688	302.7765502929688	-24.92227554321289	-836.587890625	36.59496688842773	-94.01634979248047	-877.345458984375	44.76269149780273	-151.7125854492188	-938.4148559570312	35.69429016113281	-66.16450500488281	-1083.7333984375	74.89092254638672	-197.0568542480469	-417.8656921386719	732.7379760742188	147.0430908203125	nan	nan	nan	
175	1.74	-811.384521484375	985.6105346679688	-57.31318664550781	-765.4482421875	978.1945190429688	-182.3048858642578	-745.89697265625	1084.73876953125	-109.0847091674805	-457.441162109375	1178.985717773438	-51.15819549560547	-707.7821044921875	1203.867309570312	-92.71866607666016	-567.2612915039062	1438.74072265625	-35.19921493530273	-436.2839050292969	1287.113647460938	-41.32712173461914	-688.3649291992188	1342.416748046875	29.85277557373047	-601.333251953125	1409.029907226562	-134.4765014648438	-487.7276306152344	1410.015747070312	-199.7892608642578	-536.3736572265625	1320.9267578125	-306.9876403808594	-611.4832763671875	1140.997436523438	-384.9019470214844	-706.4268798828125	1148.20263671875	-348.9712219238281	-525.20166015625	909.9741821289062	-324.1473693847656	-555.7252197265625	880.1814575195312	-400.1747131347656	-590.6491088867188	1057.317138671875	-393.8933715820312	-508.4595336914062	747.6184692382812	-316.3080749511719	-538.7590942382812	822.5936279296875	-390.0745849609375	-494.3861999511719	837.8148193359375	-339.9858703613281	-543.0225830078125	1371.607177734375	115.624267578125	-584.2720336914062	1315.316162109375	177.1729431152344	-657.021484375	1045.944458007812	230.3873138427734	-714.8374633789062	1027.630004882812	208.0268249511719	-486.5506286621094	877.4773559570312	155.5048980712891	-519.8281860351562	835.7529296875	218.1239318847656	-638.5169677734375	992.3938598632812	230.5745391845703	-418.0095520019531	818.7158813476562	173.3744812011719	-466.3734130859375	781.9728393554688	216.6910247802734	-455.3402099609375	1574.25	58.22587966918945	-273.5797119140625	1548.48046875	-38.85740280151367	-323.6654968261719	1544.113037109375	96.51126861572266	-392.4566345214844	1574.917602539062	-94.69342041015625	-607.2213134765625	892.0515747070312	-261.6175231933594	-753.7315673828125	893.7144165039062	93.71857452392578	-647.234619140625	906.0996704101562	71.37969970703125	-554.9580078125	900.4910888671875	-185.7759246826172	-360.3191833496094	539.5296630859375	-145.9712829589844	-456.8672180175781	676.8062744140625	-206.7289123535156	-475.2988586425781	49.92243957519531	-136.4682159423828	-432.7597351074219	283.7175598144531	-153.7753753662109	-286.4296569824219	85.65522766113281	-46.18330383300781	-361.3001403808594	79.90694427490234	-23.99860191345215	-354.1228332519531	53.79591751098633	-124.9145355224609	-555.108154296875	56.76194000244141	-100.0179290771484	-757.9306640625	443.592529296875	19.48592758178711	-734.0487060546875	732.5624389648438	91.52664184570312	-1048.987548828125	72.61711883544922	-120.8108749389648	-814.3923950195312	308.8780822753906	-21.02944564819336	-837.1386108398438	36.51459884643555	-94.59791564941406	-876.6875	46.99140548706055	-150.6402282714844	-937.1373291015625	36.41139984130859	-64.92594146728516	-1080.644775390625	89.20490264892578	-190.4644165039062	-399.0172424316406	740.8180541992188	149.6031494140625	nan	nan	nan	
